<svg xmlns="http://www.w3.org/2000/svg" width="180" height="180" role="img" aria-label="QR code linking to https://deut-erium.github.io/2026/03/03/unfaithful-claims-breaking-6-zkvms.html" viewBox="0 0 45 45" shape-rendering="crispEdges"><rect width="45" height="45" fill="#ffffff"/><path fill="#0f1015" d="M4 4h7v1h-7zM12 4h4v1h-4zM17 4h3v1h-3zM22 4h1v1h-1zM24 4h1v1h-1zM26 4h1v1h-1zM28 4h2v1h-2zM32 4h1v1h-1zM34 4h7v1h-7zM4 5h1v1h-1zM10 5h1v1h-1zM15 5h5v1h-5zM23 5h2v1h-2zM26 5h1v1h-1zM28 5h1v1h-1zM34 5h1v1h-1zM40 5h1v1h-1zM4 6h1v1h-1zM6 6h3v1h-3zM10 6h1v1h-1zM13 6h1v1h-1zM15 6h1v1h-1zM17 6h2v1h-2zM24 6h2v1h-2zM29 6h1v1h-1zM32 6h1v1h-1zM34 6h1v1h-1zM36 6h3v1h-3zM40 6h1v1h-1zM4 7h1v1h-1zM6 7h3v1h-3zM10 7h1v1h-1zM14 7h2v1h-2zM18 7h2v1h-2zM21 7h1v1h-1zM25 7h1v1h-1zM27 7h4v1h-4zM34 7h1v1h-1zM36 7h3v1h-3zM40 7h1v1h-1zM4 8h1v1h-1zM6 8h3v1h-3zM10 8h1v1h-1zM14 8h4v1h-4zM19 8h1v1h-1zM23 8h3v1h-3zM29 8h2v1h-2zM34 8h1v1h-1zM36 8h3v1h-3zM40 8h1v1h-1zM4 9h1v1h-1zM10 9h1v1h-1zM13 9h1v1h-1zM15 9h1v1h-1zM17 9h2v1h-2zM22 9h1v1h-1zM24 9h4v1h-4zM29 9h2v1h-2zM32 9h1v1h-1zM34 9h1v1h-1zM40 9h1v1h-1zM4 10h7v1h-7zM12 10h1v1h-1zM14 10h1v1h-1zM16 10h1v1h-1zM18 10h1v1h-1zM20 10h1v1h-1zM22 10h1v1h-1zM24 10h1v1h-1zM26 10h1v1h-1zM28 10h1v1h-1zM30 10h1v1h-1zM32 10h1v1h-1zM34 10h7v1h-7zM12 11h2v1h-2zM16 11h1v1h-1zM18 11h1v1h-1zM22 11h2v1h-2zM26 11h1v1h-1zM29 11h1v1h-1zM4 12h2v1h-2zM7 12h2v1h-2zM10 12h1v1h-1zM13 12h1v1h-1zM16 12h6v1h-6zM31 12h1v1h-1zM34 12h1v1h-1zM40 12h1v1h-1zM6 13h2v1h-2zM9 13h1v1h-1zM12 13h1v1h-1zM14 13h1v1h-1zM18 13h1v1h-1zM21 13h7v1h-7zM31 13h2v1h-2zM36 13h1v1h-1zM39 13h1v1h-1zM5 14h1v1h-1zM7 14h1v1h-1zM10 14h1v1h-1zM12 14h1v1h-1zM16 14h1v1h-1zM18 14h1v1h-1zM22 14h1v1h-1zM25 14h4v1h-4zM30 14h2v1h-2zM35 14h6v1h-6zM5 15h3v1h-3zM13 15h2v1h-2zM18 15h2v1h-2zM21 15h1v1h-1zM23 15h2v1h-2zM26 15h1v1h-1zM31 15h3v1h-3zM35 15h2v1h-2zM38 15h1v1h-1zM4 16h1v1h-1zM6 16h1v1h-1zM8 16h1v1h-1zM10 16h1v1h-1zM12 16h3v1h-3zM17 16h2v1h-2zM23 16h2v1h-2zM27 16h2v1h-2zM30 16h2v1h-2zM34 16h2v1h-2zM37 16h1v1h-1zM39 16h2v1h-2zM5 17h2v1h-2zM8 17h1v1h-1zM11 17h1v1h-1zM14 17h1v1h-1zM16 17h1v1h-1zM27 17h1v1h-1zM29 17h1v1h-1zM31 17h1v1h-1zM36 17h4v1h-4zM4 18h2v1h-2zM7 18h1v1h-1zM10 18h1v1h-1zM12 18h1v1h-1zM18 18h2v1h-2zM21 18h1v1h-1zM23 18h1v1h-1zM25 18h2v1h-2zM28 18h1v1h-1zM31 18h1v1h-1zM33 18h2v1h-2zM39 18h2v1h-2zM5 19h3v1h-3zM9 19h1v1h-1zM11 19h3v1h-3zM16 19h3v1h-3zM20 19h1v1h-1zM22 19h2v1h-2zM28 19h1v1h-1zM31 19h1v1h-1zM33 19h1v1h-1zM35 19h2v1h-2zM38 19h1v1h-1zM40 19h1v1h-1zM5 20h1v1h-1zM7 20h1v1h-1zM10 20h1v1h-1zM13 20h1v1h-1zM15 20h2v1h-2zM19 20h1v1h-1zM23 20h2v1h-2zM26 20h1v1h-1zM28 20h3v1h-3zM34 20h2v1h-2zM37 20h4v1h-4zM4 21h1v1h-1zM6 21h1v1h-1zM9 21h1v1h-1zM11 21h5v1h-5zM22 21h5v1h-5zM29 21h1v1h-1zM31 21h3v1h-3zM35 21h1v1h-1zM37 21h1v1h-1zM5 22h1v1h-1zM7 22h2v1h-2zM10 22h5v1h-5zM16 22h3v1h-3zM20 22h2v1h-2zM23 22h1v1h-1zM25 22h4v1h-4zM31 22h1v1h-1zM33 22h1v1h-1zM36 22h1v1h-1zM40 22h1v1h-1zM5 23h1v1h-1zM7 23h1v1h-1zM9 23h1v1h-1zM11 23h5v1h-5zM17 23h1v1h-1zM19 23h2v1h-2zM23 23h2v1h-2zM26 23h1v1h-1zM29 23h1v1h-1zM31 23h5v1h-5zM37 23h1v1h-1zM40 23h1v1h-1zM4 24h1v1h-1zM6 24h2v1h-2zM10 24h3v1h-3zM14 24h2v1h-2zM17 24h1v1h-1zM21 24h1v1h-1zM32 24h6v1h-6zM39 24h2v1h-2zM5 25h1v1h-1zM7 25h1v1h-1zM9 25h1v1h-1zM12 25h1v1h-1zM14 25h1v1h-1zM16 25h2v1h-2zM20 25h1v1h-1zM23 25h1v1h-1zM25 25h3v1h-3zM31 25h1v1h-1zM33 25h1v1h-1zM35 25h5v1h-5zM6 26h1v1h-1zM9 26h2v1h-2zM15 26h1v1h-1zM17 26h1v1h-1zM19 26h2v1h-2zM22 26h1v1h-1zM25 26h3v1h-3zM30 26h3v1h-3zM34 26h1v1h-1zM37 26h1v1h-1zM40 26h1v1h-1zM5 27h5v1h-5zM12 27h1v1h-1zM14 27h4v1h-4zM20 27h2v1h-2zM23 27h1v1h-1zM27 27h2v1h-2zM32 27h3v1h-3zM37 27h4v1h-4zM4 28h1v1h-1zM6 28h1v1h-1zM10 28h1v1h-1zM13 28h5v1h-5zM19 28h2v1h-2zM22 28h1v1h-1zM24 28h1v1h-1zM28 28h1v1h-1zM30 28h1v1h-1zM32 28h1v1h-1zM34 28h1v1h-1zM37 28h1v1h-1zM40 28h1v1h-1zM4 29h1v1h-1zM6 29h1v1h-1zM9 29h1v1h-1zM14 29h1v1h-1zM17 29h2v1h-2zM20 29h3v1h-3zM26 29h2v1h-2zM29 29h1v1h-1zM31 29h2v1h-2zM36 29h2v1h-2zM39 29h1v1h-1zM4 30h8v1h-8zM13 30h5v1h-5zM20 30h2v1h-2zM23 30h2v1h-2zM26 30h1v1h-1zM31 30h2v1h-2zM38 30h3v1h-3zM4 31h1v1h-1zM8 31h1v1h-1zM13 31h1v1h-1zM15 31h1v1h-1zM19 31h1v1h-1zM22 31h1v1h-1zM24 31h1v1h-1zM28 31h1v1h-1zM31 31h1v1h-1zM34 31h5v1h-5zM40 31h1v1h-1zM4 32h1v1h-1zM10 32h2v1h-2zM18 32h1v1h-1zM24 32h1v1h-1zM27 32h4v1h-4zM32 32h5v1h-5zM38 32h2v1h-2zM12 33h1v1h-1zM14 33h5v1h-5zM20 33h1v1h-1zM22 33h5v1h-5zM29 33h1v1h-1zM32 33h1v1h-1zM36 33h4v1h-4zM4 34h7v1h-7zM13 34h1v1h-1zM15 34h1v1h-1zM19 34h5v1h-5zM25 34h1v1h-1zM27 34h2v1h-2zM32 34h1v1h-1zM34 34h1v1h-1zM36 34h1v1h-1zM38 34h1v1h-1zM40 34h1v1h-1zM4 35h1v1h-1zM10 35h1v1h-1zM13 35h2v1h-2zM16 35h1v1h-1zM18 35h1v1h-1zM20 35h1v1h-1zM22 35h2v1h-2zM26 35h2v1h-2zM29 35h1v1h-1zM32 35h1v1h-1zM36 35h2v1h-2zM39 35h1v1h-1zM4 36h1v1h-1zM6 36h3v1h-3zM10 36h1v1h-1zM12 36h1v1h-1zM14 36h1v1h-1zM16 36h3v1h-3zM20 36h2v1h-2zM23 36h1v1h-1zM28 36h1v1h-1zM30 36h7v1h-7zM39 36h1v1h-1zM4 37h1v1h-1zM6 37h3v1h-3zM10 37h1v1h-1zM12 37h3v1h-3zM18 37h2v1h-2zM23 37h1v1h-1zM26 37h2v1h-2zM33 37h2v1h-2zM37 37h2v1h-2zM40 37h1v1h-1zM4 38h1v1h-1zM6 38h3v1h-3zM10 38h1v1h-1zM13 38h1v1h-1zM16 38h1v1h-1zM18 38h4v1h-4zM24 38h1v1h-1zM27 38h2v1h-2zM31 38h1v1h-1zM35 38h3v1h-3zM40 38h1v1h-1zM4 39h1v1h-1zM10 39h1v1h-1zM12 39h3v1h-3zM18 39h1v1h-1zM21 39h3v1h-3zM26 39h1v1h-1zM30 39h1v1h-1zM34 39h2v1h-2zM38 39h3v1h-3zM4 40h7v1h-7zM12 40h1v1h-1zM17 40h2v1h-2zM20 40h1v1h-1zM23 40h1v1h-1zM28 40h1v1h-1zM32 40h1v1h-1zM34 40h1v1h-1zM37 40h1v1h-1zM40 40h1v1h-1z"/></svg>